# xmcd
#
# Track frame offsets:
#      150
#      16260
#      30627
#      54962
#      70060
#      88250
#      108882
#      125647
#      144617
#      164575
#      182270
#      198892
# 
# Disc length: 2845 seconds
#
# Revision: 11
# Processed by: cddbd v1.4PL0 Copyright (c) Steve Scherf et al.
#
# Submitted via: FreeRIP 1.21
#
DISCID=9b0b1b0c
DTITLE=Fortyfive Degress - One in a million
DYEAR=1997
DGENRE=Pop
TTITLE0=no one in this world
TTITLE1=everything u want
TTITLE2=one in an million
TTITLE3=deeper love
TTITLE4=this I swear
TTITLE5=I'll never let you go
TTITLE6=the sky is falling down
TTITLE7=never give up
TTITLE8=it's just a matter of time
TTITLE9=forever girl
TTITLE10=turn it all around
TTITLE11=all i have to do is dream
EXTD=
EXTT0=
EXTT1=
EXTT2=
EXTT3=
EXTT4=
EXTT5=
EXTT6=
EXTT7=
EXTT8=
EXTT9=
EXTT10=
EXTT11=
PLAYORDER=
